<svg width="113" height="111" viewBox="0 0 113 111" fill="none" xmlns="http://www.w3.org/2000/svg">
<g opacity="0.26">
<mask id="mask0_63_157" style="mask-type:alpha" maskUnits="userSpaceOnUse" x="11" y="0" width="11" height="12">
<path d="M16.5095 11.9771C19.397 11.9771 21.7378 9.34319 21.7378 6.09421C21.7378 2.84523 19.397 0.211426 16.5095 0.211426C13.6219 0.211426 11.2811 2.84523 11.2811 6.09421C11.2811 9.34319 13.6219 11.9771 16.5095 11.9771Z" fill="url(#paint0_linear_63_157)"/>
</mask>
<g mask="url(#mask0_63_157)">
<path d="M16.5095 11.9766C19.397 11.9766 21.7378 9.3427 21.7378 6.09372C21.7378 2.84474 19.397 0.210938 16.5095 0.210938C13.6219 0.210938 11.2811 2.84474 11.2811 6.09372C11.2811 9.3427 13.6219 11.9766 16.5095 11.9766Z" fill="url(#paint1_linear_63_157)"/>
</g>
<mask id="mask1_63_157" style="mask-type:alpha" maskUnits="userSpaceOnUse" x="41" y="0" width="12" height="12">
<path d="M46.7905 11.9771C49.6781 11.9771 52.0189 9.34319 52.0189 6.09421C52.0189 2.84523 49.6781 0.211426 46.7905 0.211426C43.903 0.211426 41.5621 2.84523 41.5621 6.09421C41.5621 9.34319 43.903 11.9771 46.7905 11.9771Z" fill="url(#paint2_linear_63_157)"/>
</mask>
<g mask="url(#mask1_63_157)">
<path d="M46.7905 11.9766C49.6781 11.9766 52.0189 9.3427 52.0189 6.09372C52.0189 2.84474 49.6781 0.210938 46.7905 0.210938C43.903 0.210938 41.5621 2.84474 41.5621 6.09372C41.5621 9.3427 43.903 11.9766 46.7905 11.9766Z" fill="url(#paint3_linear_63_157)"/>
</g>
<mask id="mask2_63_157" style="mask-type:alpha" maskUnits="userSpaceOnUse" x="71" y="0" width="12" height="12">
<path d="M77.0716 11.9771C79.9592 11.9771 82.3 9.34319 82.3 6.09421C82.3 2.84523 79.9592 0.211426 77.0716 0.211426C74.184 0.211426 71.8432 2.84523 71.8432 6.09421C71.8432 9.34319 74.184 11.9771 77.0716 11.9771Z" fill="url(#paint4_linear_63_157)"/>
</mask>
<g mask="url(#mask2_63_157)">
<path d="M77.0716 11.9766C79.9592 11.9766 82.3 9.3427 82.3 6.09372C82.3 2.84474 79.9592 0.210938 77.0716 0.210938C74.184 0.210938 71.8432 2.84474 71.8432 6.09372C71.8432 9.3427 74.184 11.9766 77.0716 11.9766Z" fill="url(#paint5_linear_63_157)"/>
</g>
<mask id="mask3_63_157" style="mask-type:alpha" maskUnits="userSpaceOnUse" x="102" y="0" width="11" height="12">
<path d="M107.353 11.9771C110.24 11.9771 112.581 9.34319 112.581 6.09421C112.581 2.84523 110.24 0.211426 107.353 0.211426C104.465 0.211426 102.124 2.84523 102.124 6.09421C102.124 9.34319 104.465 11.9771 107.353 11.9771Z" fill="url(#paint6_linear_63_157)"/>
</mask>
<g mask="url(#mask3_63_157)">
<path d="M107.353 11.9766C110.24 11.9766 112.581 9.3427 112.581 6.09372C112.581 2.84474 110.24 0.210938 107.353 0.210938C104.465 0.210938 102.124 2.84474 102.124 6.09372C102.124 9.3427 104.465 11.9766 107.353 11.9766Z" fill="url(#paint7_linear_63_157)"/>
</g>
<mask id="mask4_63_157" style="mask-type:alpha" maskUnits="userSpaceOnUse" x="11" y="29" width="11" height="13">
<path d="M16.5095 41.5131C19.397 41.5131 21.7378 38.8793 21.7378 35.6303C21.7378 32.3814 19.397 29.7476 16.5095 29.7476C13.6219 29.7476 11.2811 32.3814 11.2811 35.6303C11.2811 38.8793 13.6219 41.5131 16.5095 41.5131Z" fill="url(#paint8_linear_63_157)"/>
</mask>
<g mask="url(#mask4_63_157)">
<path d="M16.5095 41.5126C19.397 41.5126 21.7378 38.8788 21.7378 35.6298C21.7378 32.3809 19.397 29.7471 16.5095 29.7471C13.6219 29.7471 11.2811 32.3809 11.2811 35.6298C11.2811 38.8788 13.6219 41.5126 16.5095 41.5126Z" fill="url(#paint9_linear_63_157)"/>
</g>
<mask id="mask5_63_157" style="mask-type:alpha" maskUnits="userSpaceOnUse" x="41" y="29" width="12" height="13">
<path d="M46.7905 41.5131C49.6781 41.5131 52.0189 38.8793 52.0189 35.6303C52.0189 32.3814 49.6781 29.7476 46.7905 29.7476C43.903 29.7476 41.5621 32.3814 41.5621 35.6303C41.5621 38.8793 43.903 41.5131 46.7905 41.5131Z" fill="url(#paint10_linear_63_157)"/>
</mask>
<g mask="url(#mask5_63_157)">
<path d="M46.7905 41.5126C49.6781 41.5126 52.0189 38.8788 52.0189 35.6298C52.0189 32.3809 49.6781 29.7471 46.7905 29.7471C43.903 29.7471 41.5621 32.3809 41.5621 35.6298C41.5621 38.8788 43.903 41.5126 46.7905 41.5126Z" fill="url(#paint11_linear_63_157)"/>
</g>
<mask id="mask6_63_157" style="mask-type:alpha" maskUnits="userSpaceOnUse" x="71" y="29" width="12" height="13">
<path d="M77.0716 41.5131C79.9592 41.5131 82.3 38.8793 82.3 35.6303C82.3 32.3814 79.9592 29.7476 77.0716 29.7476C74.184 29.7476 71.8432 32.3814 71.8432 35.6303C71.8432 38.8793 74.184 41.5131 77.0716 41.5131Z" fill="url(#paint12_linear_63_157)"/>
</mask>
<g mask="url(#mask6_63_157)">
<path d="M77.0716 41.5126C79.9592 41.5126 82.3 38.8788 82.3 35.6298C82.3 32.3809 79.9592 29.7471 77.0716 29.7471C74.184 29.7471 71.8432 32.3809 71.8432 35.6298C71.8432 38.8788 74.184 41.5126 77.0716 41.5126Z" fill="url(#paint13_linear_63_157)"/>
</g>
<mask id="mask7_63_157" style="mask-type:alpha" maskUnits="userSpaceOnUse" x="102" y="29" width="11" height="13">
<path d="M107.353 41.5131C110.24 41.5131 112.581 38.8793 112.581 35.6303C112.581 32.3814 110.24 29.7476 107.353 29.7476C104.465 29.7476 102.124 32.3814 102.124 35.6303C102.124 38.8793 104.465 41.5131 107.353 41.5131Z" fill="url(#paint14_linear_63_157)"/>
</mask>
<g mask="url(#mask7_63_157)">
<path d="M107.353 41.5126C110.24 41.5126 112.581 38.8788 112.581 35.6298C112.581 32.3809 110.24 29.7471 107.353 29.7471C104.465 29.7471 102.124 32.3809 102.124 35.6298C102.124 38.8788 104.465 41.5126 107.353 41.5126Z" fill="url(#paint15_linear_63_157)"/>
</g>
<mask id="mask8_63_157" style="mask-type:alpha" maskUnits="userSpaceOnUse" x="11" y="59" width="11" height="12">
<path d="M16.5095 70.9883C19.397 70.9883 21.7378 68.3545 21.7378 65.1055C21.7378 61.8565 19.397 59.2227 16.5095 59.2227C13.6219 59.2227 11.2811 61.8565 11.2811 65.1055C11.2811 68.3545 13.6219 70.9883 16.5095 70.9883Z" fill="url(#paint16_linear_63_157)"/>
</mask>
<g mask="url(#mask8_63_157)">
<path d="M16.5095 70.9883C19.397 70.9883 21.7378 68.3545 21.7378 65.1055C21.7378 61.8565 19.397 59.2227 16.5095 59.2227C13.6219 59.2227 11.2811 61.8565 11.2811 65.1055C11.2811 68.3545 13.6219 70.9883 16.5095 70.9883Z" fill="url(#paint17_linear_63_157)"/>
</g>
<mask id="mask9_63_157" style="mask-type:alpha" maskUnits="userSpaceOnUse" x="41" y="59" width="12" height="12">
<path d="M46.7905 70.9883C49.6781 70.9883 52.0189 68.3545 52.0189 65.1055C52.0189 61.8565 49.6781 59.2227 46.7905 59.2227C43.903 59.2227 41.5621 61.8565 41.5621 65.1055C41.5621 68.3545 43.903 70.9883 46.7905 70.9883Z" fill="url(#paint18_linear_63_157)"/>
</mask>
<g mask="url(#mask9_63_157)">
<path d="M46.7905 70.9883C49.6781 70.9883 52.0189 68.3545 52.0189 65.1055C52.0189 61.8565 49.6781 59.2227 46.7905 59.2227C43.903 59.2227 41.5621 61.8565 41.5621 65.1055C41.5621 68.3545 43.903 70.9883 46.7905 70.9883Z" fill="url(#paint19_linear_63_157)"/>
</g>
<mask id="mask10_63_157" style="mask-type:alpha" maskUnits="userSpaceOnUse" x="71" y="59" width="12" height="12">
<path d="M77.0716 70.9883C79.9592 70.9883 82.3 68.3545 82.3 65.1055C82.3 61.8565 79.9592 59.2227 77.0716 59.2227C74.184 59.2227 71.8432 61.8565 71.8432 65.1055C71.8432 68.3545 74.184 70.9883 77.0716 70.9883Z" fill="url(#paint20_linear_63_157)"/>
</mask>
<g mask="url(#mask10_63_157)">
<path d="M77.0716 70.9883C79.9592 70.9883 82.3 68.3545 82.3 65.1055C82.3 61.8565 79.9592 59.2227 77.0716 59.2227C74.184 59.2227 71.8432 61.8565 71.8432 65.1055C71.8432 68.3545 74.184 70.9883 77.0716 70.9883Z" fill="url(#paint21_linear_63_157)"/>
</g>
<mask id="mask11_63_157" style="mask-type:alpha" maskUnits="userSpaceOnUse" x="102" y="59" width="11" height="12">
<path d="M107.353 70.9883C110.24 70.9883 112.581 68.3545 112.581 65.1055C112.581 61.8565 110.24 59.2227 107.353 59.2227C104.465 59.2227 102.124 61.8565 102.124 65.1055C102.124 68.3545 104.465 70.9883 107.353 70.9883Z" fill="url(#paint22_linear_63_157)"/>
</mask>
<g mask="url(#mask11_63_157)">
<path d="M107.353 70.9883C110.24 70.9883 112.581 68.3545 112.581 65.1055C112.581 61.8565 110.24 59.2227 107.353 59.2227C104.465 59.2227 102.124 61.8565 102.124 65.1055C102.124 68.3545 104.465 70.9883 107.353 70.9883Z" fill="url(#paint23_linear_63_157)"/>
</g>
<mask id="mask12_63_157" style="mask-type:alpha" maskUnits="userSpaceOnUse" x="11" y="88" width="11" height="13">
<path d="M16.5095 100.524C19.397 100.524 21.7378 97.8906 21.7378 94.6416C21.7378 91.3926 19.397 88.7588 16.5095 88.7588C13.6219 88.7588 11.2811 91.3926 11.2811 94.6416C11.2811 97.8906 13.6219 100.524 16.5095 100.524Z" fill="url(#paint24_linear_63_157)"/>
</mask>
<g mask="url(#mask12_63_157)">
<path d="M16.5095 100.525C19.397 100.525 21.7378 97.891 21.7378 94.6421C21.7378 91.3931 19.397 88.7593 16.5095 88.7593C13.6219 88.7593 11.2811 91.3931 11.2811 94.6421C11.2811 97.891 13.6219 100.525 16.5095 100.525Z" fill="url(#paint25_linear_63_157)"/>
</g>
<mask id="mask13_63_157" style="mask-type:alpha" maskUnits="userSpaceOnUse" x="41" y="88" width="12" height="13">
<path d="M46.7905 100.524C49.6781 100.524 52.0189 97.8906 52.0189 94.6416C52.0189 91.3926 49.6781 88.7588 46.7905 88.7588C43.903 88.7588 41.5621 91.3926 41.5621 94.6416C41.5621 97.8906 43.903 100.524 46.7905 100.524Z" fill="url(#paint26_linear_63_157)"/>
</mask>
<g mask="url(#mask13_63_157)">
<path d="M46.7905 100.525C49.6781 100.525 52.0189 97.891 52.0189 94.6421C52.0189 91.3931 49.6781 88.7593 46.7905 88.7593C43.903 88.7593 41.5621 91.3931 41.5621 94.6421C41.5621 97.891 43.903 100.525 46.7905 100.525Z" fill="url(#paint27_linear_63_157)"/>
</g>
<mask id="mask14_63_157" style="mask-type:alpha" maskUnits="userSpaceOnUse" x="71" y="88" width="12" height="13">
<path d="M77.0716 100.524C79.9592 100.524 82.3 97.8906 82.3 94.6416C82.3 91.3926 79.9592 88.7588 77.0716 88.7588C74.184 88.7588 71.8432 91.3926 71.8432 94.6416C71.8432 97.8906 74.184 100.524 77.0716 100.524Z" fill="url(#paint28_linear_63_157)"/>
</mask>
<g mask="url(#mask14_63_157)">
<path d="M77.0716 100.525C79.9592 100.525 82.3 97.891 82.3 94.6421C82.3 91.3931 79.9592 88.7593 77.0716 88.7593C74.184 88.7593 71.8432 91.3931 71.8432 94.6421C71.8432 97.891 74.184 100.525 77.0716 100.525Z" fill="url(#paint29_linear_63_157)"/>
</g>
<mask id="mask15_63_157" style="mask-type:alpha" maskUnits="userSpaceOnUse" x="102" y="88" width="11" height="13">
<path d="M107.353 100.524C110.24 100.524 112.581 97.8906 112.581 94.6416C112.581 91.3926 110.24 88.7588 107.353 88.7588C104.465 88.7588 102.124 91.3926 102.124 94.6416C102.124 97.8906 104.465 100.524 107.353 100.524Z" fill="url(#paint30_linear_63_157)"/>
</mask>
<g mask="url(#mask15_63_157)">
<path d="M107.353 100.525C110.24 100.525 112.581 97.891 112.581 94.6421C112.581 91.3931 110.24 88.7593 107.353 88.7593C104.465 88.7593 102.124 91.3931 102.124 94.6421C102.124 97.891 104.465 100.525 107.353 100.525Z" fill="url(#paint31_linear_63_157)"/>
</g>
</g>
<defs>
<linearGradient id="paint0_linear_63_157" x1="66.2771" y1="148.209" x2="-21.4608" y2="-49.7339" gradientUnits="userSpaceOnUse">
<stop stop-color="white"/>
<stop offset="1" stop-color="white"/>
</linearGradient>
<linearGradient id="paint1_linear_63_157" x1="66.2771" y1="148.209" x2="-21.4608" y2="-49.7344" gradientUnits="userSpaceOnUse">
<stop stop-color="white"/>
<stop offset="1" stop-color="white"/>
</linearGradient>
<linearGradient id="paint2_linear_63_157" x1="96.5582" y1="148.209" x2="8.8203" y2="-49.7339" gradientUnits="userSpaceOnUse">
<stop stop-color="white"/>
<stop offset="1" stop-color="white"/>
</linearGradient>
<linearGradient id="paint3_linear_63_157" x1="96.5582" y1="148.209" x2="8.8203" y2="-49.7344" gradientUnits="userSpaceOnUse">
<stop stop-color="white"/>
<stop offset="1" stop-color="white"/>
</linearGradient>
<linearGradient id="paint4_linear_63_157" x1="126.839" y1="148.209" x2="39.1014" y2="-49.7339" gradientUnits="userSpaceOnUse">
<stop stop-color="white"/>
<stop offset="1" stop-color="white"/>
</linearGradient>
<linearGradient id="paint5_linear_63_157" x1="126.839" y1="148.209" x2="39.1014" y2="-49.7344" gradientUnits="userSpaceOnUse">
<stop stop-color="white"/>
<stop offset="1" stop-color="white"/>
</linearGradient>
<linearGradient id="paint6_linear_63_157" x1="157.12" y1="148.209" x2="69.3824" y2="-49.7339" gradientUnits="userSpaceOnUse">
<stop stop-color="white"/>
<stop offset="1" stop-color="white"/>
</linearGradient>
<linearGradient id="paint7_linear_63_157" x1="157.12" y1="148.209" x2="69.3824" y2="-49.7344" gradientUnits="userSpaceOnUse">
<stop stop-color="white"/>
<stop offset="1" stop-color="white"/>
</linearGradient>
<linearGradient id="paint8_linear_63_157" x1="66.2771" y1="177.744" x2="-21.4593" y2="-20.1979" gradientUnits="userSpaceOnUse">
<stop stop-color="white"/>
<stop offset="1" stop-color="white"/>
</linearGradient>
<linearGradient id="paint9_linear_63_157" x1="66.2771" y1="177.744" x2="-21.4593" y2="-20.1984" gradientUnits="userSpaceOnUse">
<stop stop-color="white"/>
<stop offset="1" stop-color="white"/>
</linearGradient>
<linearGradient id="paint10_linear_63_157" x1="96.5582" y1="177.744" x2="8.82175" y2="-20.1979" gradientUnits="userSpaceOnUse">
<stop stop-color="white"/>
<stop offset="1" stop-color="white"/>
</linearGradient>
<linearGradient id="paint11_linear_63_157" x1="96.5582" y1="177.744" x2="8.82175" y2="-20.1984" gradientUnits="userSpaceOnUse">
<stop stop-color="white"/>
<stop offset="1" stop-color="white"/>
</linearGradient>
<linearGradient id="paint12_linear_63_157" x1="126.839" y1="177.744" x2="39.1028" y2="-20.1979" gradientUnits="userSpaceOnUse">
<stop stop-color="white"/>
<stop offset="1" stop-color="white"/>
</linearGradient>
<linearGradient id="paint13_linear_63_157" x1="126.839" y1="177.744" x2="39.1028" y2="-20.1984" gradientUnits="userSpaceOnUse">
<stop stop-color="white"/>
<stop offset="1" stop-color="white"/>
</linearGradient>
<linearGradient id="paint14_linear_63_157" x1="157.12" y1="177.744" x2="69.3839" y2="-20.1979" gradientUnits="userSpaceOnUse">
<stop stop-color="white"/>
<stop offset="1" stop-color="white"/>
</linearGradient>
<linearGradient id="paint15_linear_63_157" x1="157.12" y1="177.744" x2="69.3839" y2="-20.1984" gradientUnits="userSpaceOnUse">
<stop stop-color="white"/>
<stop offset="1" stop-color="white"/>
</linearGradient>
<linearGradient id="paint16_linear_63_157" x1="66.2771" y1="207.221" x2="-21.4608" y2="9.2773" gradientUnits="userSpaceOnUse">
<stop stop-color="white"/>
<stop offset="1" stop-color="white"/>
</linearGradient>
<linearGradient id="paint17_linear_63_157" x1="66.2771" y1="207.221" x2="-21.4608" y2="9.2773" gradientUnits="userSpaceOnUse">
<stop stop-color="white"/>
<stop offset="1" stop-color="white"/>
</linearGradient>
<linearGradient id="paint18_linear_63_157" x1="96.5582" y1="207.221" x2="8.8203" y2="9.2773" gradientUnits="userSpaceOnUse">
<stop stop-color="white"/>
<stop offset="1" stop-color="white"/>
</linearGradient>
<linearGradient id="paint19_linear_63_157" x1="96.5582" y1="207.221" x2="8.8203" y2="9.2773" gradientUnits="userSpaceOnUse">
<stop stop-color="white"/>
<stop offset="1" stop-color="white"/>
</linearGradient>
<linearGradient id="paint20_linear_63_157" x1="126.839" y1="207.221" x2="39.1014" y2="9.2773" gradientUnits="userSpaceOnUse">
<stop stop-color="white"/>
<stop offset="1" stop-color="white"/>
</linearGradient>
<linearGradient id="paint21_linear_63_157" x1="126.839" y1="207.221" x2="39.1014" y2="9.2773" gradientUnits="userSpaceOnUse">
<stop stop-color="white"/>
<stop offset="1" stop-color="white"/>
</linearGradient>
<linearGradient id="paint22_linear_63_157" x1="157.12" y1="207.221" x2="69.3824" y2="9.2773" gradientUnits="userSpaceOnUse">
<stop stop-color="white"/>
<stop offset="1" stop-color="white"/>
</linearGradient>
<linearGradient id="paint23_linear_63_157" x1="157.12" y1="207.221" x2="69.3824" y2="9.2773" gradientUnits="userSpaceOnUse">
<stop stop-color="white"/>
<stop offset="1" stop-color="white"/>
</linearGradient>
<linearGradient id="paint24_linear_63_157" x1="66.2771" y1="236.757" x2="-21.4608" y2="38.8134" gradientUnits="userSpaceOnUse">
<stop stop-color="white"/>
<stop offset="1" stop-color="white"/>
</linearGradient>
<linearGradient id="paint25_linear_63_157" x1="66.2771" y1="236.757" x2="-21.4608" y2="38.8139" gradientUnits="userSpaceOnUse">
<stop stop-color="white"/>
<stop offset="1" stop-color="white"/>
</linearGradient>
<linearGradient id="paint26_linear_63_157" x1="96.5582" y1="236.757" x2="8.8203" y2="38.8134" gradientUnits="userSpaceOnUse">
<stop stop-color="white"/>
<stop offset="1" stop-color="white"/>
</linearGradient>
<linearGradient id="paint27_linear_63_157" x1="96.5582" y1="236.757" x2="8.8203" y2="38.8139" gradientUnits="userSpaceOnUse">
<stop stop-color="white"/>
<stop offset="1" stop-color="white"/>
</linearGradient>
<linearGradient id="paint28_linear_63_157" x1="126.839" y1="236.757" x2="39.1014" y2="38.8134" gradientUnits="userSpaceOnUse">
<stop stop-color="white"/>
<stop offset="1" stop-color="white"/>
</linearGradient>
<linearGradient id="paint29_linear_63_157" x1="126.839" y1="236.757" x2="39.1014" y2="38.8139" gradientUnits="userSpaceOnUse">
<stop stop-color="white"/>
<stop offset="1" stop-color="white"/>
</linearGradient>
<linearGradient id="paint30_linear_63_157" x1="157.12" y1="236.757" x2="69.3824" y2="38.8134" gradientUnits="userSpaceOnUse">
<stop stop-color="white"/>
<stop offset="1" stop-color="white"/>
</linearGradient>
<linearGradient id="paint31_linear_63_157" x1="157.12" y1="236.757" x2="69.3824" y2="38.8139" gradientUnits="userSpaceOnUse">
<stop stop-color="white"/>
<stop offset="1" stop-color="white"/>
</linearGradient>
</defs>
</svg>
